# xmcd
#
# Track frame offsets: 
#        150
#        12358
#        31780
#        44444
#        59802
#        77698
#        96833
#        118053
#        139645
#        155677
#
# Disc length: 2316 seconds
#
# Revision: 0
# Processed by: cddbd v1.5.1PL2 Copyright (c) Steve Scherf et al.
# Submitted via: ExactAudioCopy v0.95b4
#
DISCID=82090a0a
DTITLE=Dave Hamilton and Jeff Bradshaw - Swingin' Country Dance Toons
DYEAR=2003
DGENRE=
TTITLE0=Big Beaver
TTITLE1=Don't Fence Me In
TTITLE2=DownYonder
TTITLE3=Redwing
TTITLE4=You Win Again
TTITLE5=Bud's Bounce
TTITLE6=Canadian Sunset
TTITLE7=Jersey Bounce
TTITLE8=Buckaroo
TTITLE9=Westphalia Waltz
EXTD=
EXTT0=
EXTT1=
EXTT2=
EXTT3=
EXTT4=
EXTT5=
EXTT6=
EXTT7=
EXTT8=
EXTT9=
PLAYORDER=
